# xmcd
#
# Track frame offsets:
#	150
#	12832
#	26674
#	41491
#	57944
#	75645
#	89564
#	102887
#	117027
#	132729
#	146334
#	161078
#	173034
#	187343
#	203408
#	219507
#	238264
#	251715
#
# Disc length: 3713 seconds
#
# Revision: 0
# Processed by: cddbd v1.5.2PL0 Copyright (c) Steve Scherf et al.
# Submitted via: EasyCDDAExtractor 16.0.6.1
#
DISCID=fd0e7f12
DTITLE=Συλλογικός δίσκος - Τα σπάνια
DYEAR=2010
DGENRE=Λαϊκή
TTITLE0=Πάνου Πόλυ-Μάριος - Ο κατήφορος [Γιώργος Χουβαρδάς-Πόλυ Πάνου]
TTITLE1=Σιδέρη Σοφία - Μάθε πρώτα, ποιά είμαι εγώ [Σταύρος Κάξος-Ι. Κουμουνδού
TTITLE1=ρος]
TTITLE2=Βασιλόπουλος Πάνος - Δεν περίμενα από σένα να τιμωρηθώ [Π. Γαβαλάς-Β. 
TTITLE2=Βασιλειάδης]
TTITLE3=Κύπριος Στράτος-Σακελλαρίου Ρίτα - Μείνε αγάπη μου κοντά μου [Βασ. Τσι
TTITLE3=τσάνης]
TTITLE4=Καζαντζίδης Στέλιος-Μοσχολιού Βίκυ - Φύγε κι άσε με [Π. Γαβαλάς/Τάσος 
TTITLE4=Κουλούρης-Κ. Βίρβος]
TTITLE5=Κύπριος Στράτος-Σακελλαρίου Ρίτα - Να βάλεις τα καινούρια σου Βαγγ. Σο
TTITLE5=ύκας]
TTITLE6=Σακελλαρίου Ρίτα - Καινούρια κοινωνία [Αντ. Κατινάρης-Ν. Δαλέζιος]
TTITLE7=Καζαντζίδης Στέλιος - Μιά καινούρια κοινωνία [Στέλιος Καζαντζίδης-Χρ. 
TTITLE7=Κολοκοτρώνης]
TTITLE8=Λύδια Γιώτα-Ατταλίδης Στράτος - Μιά μελαχροινή [Στελλ. Περπινιάδης-Παν
TTITLE8=Κοκοντίνης]
TTITLE9=Χαραλαμπίδης Βλαδίμηρος - Πού θα πας χαρά μου [Στρ. Βαλλιάνος-Σπ. Κεφα
TTITLE9=λόπουλος]
TTITLE10=Σακελλαρίου Ρίτα-Αλιφραγκής Νίκος - Μάγκας κι αριστοκράτισσα [Στ. Χρυ
TTITLE10=σίνης-Σπ. Κεφαλόπουλος]
TTITLE11=Σταματοπούλου Ρίτσα - Δεν ξανάρχομαι κοντά σου [Στ. Χρυσίνης]
TTITLE12=Μαυρόπουλος Τζώνης-Σταματοπούλου Ρίτσα - Μη με τυραννάς [Νάκης Πετρίδ
TTITLE12=ης-Αθαν. Τσόγκας]
TTITLE13=Τζουανάκος Σταύρος - Δυό αναμνήσεις [Σταύρος Τζουανάκος]
TTITLE14=Στυλ Εύα-Χιώτης Μανώλης - Εγώ είμαι το μπεγλέρι σου Βασ. Τσιτσάνης]
TTITLE15=Σουγιουλτζής Στέλιος-Στεργίου Δημήτρης - Έλα κάνε μου παρέα [Σπ. Περι
TTITLE15=στέρης]
TTITLE16=Ορφανίδης Δημήτρης-Καπλάνης Κώστας - Γλυκοχαράζει [Κώστας Καπλάνης]
TTITLE17=Άνευ ερμηνευτού - Σόλο Μπέμπη [οργ., Δημ. Στεργίου ή Μπέμπης]
EXTD=
EXTT0=
EXTT1=
EXTT2=
EXTT3=
EXTT4=
EXTT5=
EXTT6=
EXTT7=
EXTT8=
EXTT9=
EXTT10=
EXTT11=
EXTT12=
EXTT13=
EXTT14=
EXTT15=
EXTT16=
EXTT17=
PLAYORDER=
